<svg width="1080" height="545" viewBox="0 0 1080 545" fill="none" xmlns="http://www.w3.org/2000/svg">
<path d="M2 249.578C2 219.686 7.98847 193.216 19.9667 170.167C32.2963 146.757 48.854 128.571 69.6394 115.605C90.4239 102.64 113.323 96.1577 138.335 96.1577C159.12 96.1577 177.439 100.299 193.292 108.583C209.498 116.506 222.532 126.77 232.396 139.375V100.48H306.905V542.374H232.396V358.702C222.532 371.667 209.321 382.471 192.764 391.114C176.206 399.758 157.535 404.079 136.75 404.079C112.09 404.079 89.367 397.597 68.5825 384.632C48.1493 371.309 31.9442 352.942 19.9667 329.53C7.98847 306.119 2 279.473 2 249.578ZM232.396 250.119C232.396 231.751 228.697 215.905 221.299 202.58C213.901 189.255 204.213 179.171 192.235 172.328C180.61 165.485 168.103 162.064 154.717 162.064C141.682 162.064 129.176 165.485 117.198 172.328C105.573 179.171 96.061 189.255 88.6627 202.58C81.2649 215.545 77.5659 231.211 77.5659 249.578C77.5659 267.946 81.2649 283.97 88.6627 297.657C96.061 310.98 105.573 321.069 117.198 327.909C129.176 334.75 141.682 338.174 154.717 338.174C168.103 338.174 180.61 334.75 192.235 327.909C204.213 321.069 213.901 310.98 221.299 297.657C228.697 284.335 232.396 268.486 232.396 250.119ZM395.012 146.938C404.524 131.091 416.854 118.667 432.003 109.663C447.504 100.66 465.118 96.1577 484.844 96.1577V175.569H465.294C442.043 175.569 424.429 181.152 412.451 192.316C400.825 203.48 395.012 222.928 395.012 250.659V399.758H321.032V100.48H395.012V146.938ZM764.539 243.636C764.539 254.44 763.841 264.164 762.429 272.808H548.417C550.178 294.416 557.575 311.345 570.608 323.588C583.646 335.83 599.669 341.955 618.692 341.955C646.17 341.955 665.724 329.888 677.351 305.761H757.142C748.688 334.575 732.483 358.344 708.527 377.069C684.575 395.436 655.155 404.62 620.281 404.62C592.1 404.62 566.732 398.319 544.188 385.712C521.992 372.747 504.557 354.562 491.873 331.151C479.544 307.739 473.376 280.729 473.376 250.119C473.376 219.146 479.544 191.956 491.873 168.547C504.203 145.137 521.466 127.131 543.661 114.525C565.852 101.92 591.392 95.6177 620.281 95.6177C648.112 95.6177 672.949 101.74 694.786 113.985C716.981 126.23 734.071 143.697 746.047 166.386C758.377 188.715 764.539 214.465 764.539 243.636ZM687.92 222.028C687.57 202.58 680.7 187.094 667.308 175.569C653.926 163.685 637.543 157.742 618.166 157.742C599.851 157.742 584.344 163.504 571.665 175.029C559.335 186.193 551.761 201.859 548.943 222.028H687.92ZM773.096 249.038C773.096 218.786 778.909 191.956 790.531 168.547C802.516 145.137 818.717 127.131 839.147 114.525C859.586 101.92 882.308 95.6177 907.317 95.6177C926.34 95.6177 944.483 99.9393 961.745 108.583C979.013 116.867 992.749 128.03 1002.96 142.076V0H1078V399.758H1002.96V355.46C993.806 370.228 980.946 382.113 964.386 391.114C947.832 400.115 928.632 404.62 906.79 404.62C882.131 404.62 859.586 398.137 839.147 385.172C818.717 372.207 802.516 354.022 790.531 330.61C778.909 306.841 773.096 279.648 773.096 249.038ZM1003.49 250.119C1003.49 231.751 999.969 216.085 992.921 203.12C985.883 189.795 976.371 179.711 964.386 172.868C952.411 165.665 939.55 162.064 925.813 162.064C912.072 162.064 899.389 165.485 887.767 172.328C876.14 179.171 866.629 189.255 859.227 202.58C852.189 215.545 848.663 231.031 848.663 249.038C848.663 267.048 852.189 282.89 859.227 296.577C866.629 309.9 876.14 320.164 887.767 327.369C899.747 334.574 912.431 338.174 925.813 338.174C939.55 338.174 952.411 334.75 964.386 327.909C976.371 320.704 985.883 310.622 992.921 297.657C999.969 284.335 1003.49 268.486 1003.49 250.119Z" fill="#1F292E"/>
</svg>
